<?xml version="1.0" encoding="utf-8"?>
<!-- Generator: Adobe Illustrator 25.1.0, SVG Export Plug-In . SVG Version: 6.00 Build 0)  -->
<svg version="1.1" id="bff1eec5-8c42-4467-882f-1d2c94145129"
	 xmlns="http://www.w3.org/2000/svg" xmlns:xlink="http://www.w3.org/1999/xlink" x="0px" y="0px" viewBox="0 0 947.8 740.9"
	 style="enable-background:new 0 0 947.8 740.9;" xml:space="preserve">
<style type="text/css">
	.st0{fill:#E6E6E6;}
	.st1{fill:#FFB9B9;}
	.st2{fill:#575A89;}
	.st3{fill:#2F2E41;}
	.st4{opacity:0.1;enable-background:new    ;}
	.st5{fill:#3F3D56;}
	.st6{fill:#6C63FF;}
	.st7{fill:#A0616A;}
	.st8{opacity:0.35;fill:#A3BEFF;}
</style>
<path class="st0" d="M851.1,710.5l85.9-127.7l-85.7,141.5l0.2,14.4c-6.3,0-12.5-0.1-18.6-0.3l4.3-184.7l-0.1-1.4l0.2-0.3l0.4-17.5
	l-94.1-136.6l93.9,123.5l0.3,3.7l3.2-139.6l-81.2-141.6l81.5,117.1l-0.9-289.2l0-1l0,0.9l5.4,227.9l74-92.6L846,319.3l1.6,124.9
	l68.1-121.8l-67.9,140.2l0.9,69.4l99.1-169.7l-98.8,194L851.1,710.5z"/>
<path class="st0" d="M659.6,724l41.6-61.9l-41.5,68.5l0.1,7c-3,0-6,0-9-0.2l2.1-89.5l-0.1-0.7l0.1-0.1l0.2-8.5l-45.6-66.2l45.5,59.8
	l0.2,1.8l1.6-67.6l-39.4-68.6l39.5,56.7l-0.4-140.1l0-0.5l0,0.5l2.6,110.4l35.9-44.8l-35.8,54.4l0.8,60.5l33-59L658,603.8l0.4,33.6
	l48-82.2l-47.9,94L659.6,724z"/>
<path class="st0" d="M56.6,724.4l41.6-61.9L56.6,731l0.1,7c-3,0-6,0-9-0.2l2.1-89.5l-0.1-0.7l0.1-0.1L50,639L4.4,572.9l45.5,59.8
	l0.2,1.8l1.6-67.6l-39.4-68.6L51.8,555l-0.4-140.1l0-0.5l0,0.5L54,525.3l35.9-44.8l-35.8,54.4l0.8,60.5l33-59L55,604.2l0.4,33.6
	l48-82.2l-47.9,94L56.6,724.4z"/>
<path class="st1" d="M562.5,402.1c0,0-15.4-43.7-26.6-30S553,409,553,409L562.5,402.1z"/>
<path class="st2" d="M635.4,359.2l-9.3,3.4c0,0-4.4,19.7-2.7,23.1s2.6,0.9,0,7.7s-10.3,24.9-11.1,27.4s-49.7-16.3-49.7-25.7
	c0,0-10.3,12-15.4,14.6c0,0,56.6,41.2,64.3,46.3s12,2.6,18.9-3.4s36-55.7,36-55.7L635.4,359.2z"/>
<path class="st3" d="M617.5,696.6c0,0,0.9,9.4,2.6,10.3s14.6,22.3,0,26.6s-23.2,2.6-26.6,4.3s-63.5,5.1-64.3-4.3
	s29.2-11.1,29.2-11.1s27.4-18,31.7-27.4S617.5,696.6,617.5,696.6z"/>
<path class="st3" d="M784.6,680.8c0,0,20.6,35.2,15.4,39.4s-55.3,19.9-62.6,20.6c-9.4,0.9-16.3-6.9-8.6-11.1s24-22.3,24-28.3v-15.4
	L784.6,680.8z"/>
<path class="st3" d="M804.3,451c0,0,18,22.3-10.3,58.3l-47.2,60c0,0,29.2,46.3,30,70.3s6.9,18.9,8.6,29.2s9.4,5.1,3.4,12.9
	s-28.3,14.6-35.2,8.6c-4.8-4.4-7.3-10.7-6.9-17.2c0-3.4-12-23.2-12.9-29.2S701.4,589,701.4,589s-10.3-29.2,1.7-45.4
	s19.9-39.4,19.9-39.4s-35.4,42.8-60.2,53.1c0,0-9.4,1.7-7.7,6s0,6.9-2.6,11.1s-13.6,87-19.6,99.9s-3.4,20.6-10.3,24.9
	s-37.7,0.9-37.7-3.4s4.3-15.4,6.9-21.4s16.2-108.5,14.4-120.5s0.9-28.3,13.7-35.2c12.9-6.9,78-62.6,81.5-62.6S804.3,451,804.3,451z"
	/>
<circle class="st1" cx="631.9" cy="280.3" r="36"/>
<path class="st1" d="M661.1,283.8c0,0,11.1,19.7,24.9,22.3s-36,42-36,42s-12-37.7-22.3-39.4S661.1,283.8,661.1,283.8z"/>
<path class="st2" d="M625.9,364.4c0,11.1,33.4,42.9,33.4,42.9l31.7,26.6c0,0,0.9,9.4,4.3,10.3s7.7,0.9,4.3,6s-12,16.3-4.3,18
	c2.3,0.4,4.7,0.6,7,0.7c2.1,0.1,4.5,0.2,7.2,0.3c6.3,0.2,14.3,0.4,22.9,0.3c2.4,0,4.9,0,7.5-0.1c32.4-0.6,70-4.4,66.9-16.7
	c-5.1-20.6-1.7-27.4-12.9-38.6s-29.2-49.7-29.2-49.7s-36-60.9-66-60.9l-6.2-1.6c-5.9-1.6-12.2,0.8-15.6,6
	c-6,9.2-15.5,22.9-21.1,27.4c-8.6,6.9-9.9,1.9-9.9,1.9S625.9,353.2,625.9,364.4z"/>
<path class="st1" d="M702.2,494.7c0,0-24.9,38.6-9.4,45.4s24-40.3,24-40.3L702.2,494.7z"/>
<path class="st3" d="M655.5,276.3c-1.4-0.2-1.8-1.9-2.1-3.3c-1.2-7.4-6.7-14.3-14.1-15.5c-2.8-0.4-5.7-0.1-8.4,0.7
	c-3.9,1.1-7.6,2.9-10.8,5.3c-1.6,1.4-3.4,2.6-5.4,3.4c-1.4,0.4-7.1,2.9-8.4,3.4c-2.9,0.9-5.4,4-8.4,3.4c-2.9-0.6-4-4.1-4.5-7
	c-1.1-6.7,2.8-16.6,6.5-22.2c2.9-4.2,7.7-6.7,12.6-8.3c5.7-1.7,11.6-2.9,17.5-3.5c8-0.9,16.3-1.4,24,1s14.7,8.5,16.1,16.5
	c0.3,1.7,0.4,3.3,0.7,5c0.9,4,3.5,7.4,5.1,11.2c2.3,5.6,2,12-0.7,17.4c-2.1,4.3-5.9,8.4-5.1,13.2l-6.6-5.2c-2-1.1-2.9-3.5-2.2-5.6
	l1-8.3c0.3-1.5,0.2-3.1-0.4-4.5C659.1,268.2,657.8,276.6,655.5,276.3z"/>
<path class="st4" d="M717.7,435.5l-8.1,33.6c8.1,0.3,18.9,0.4,30.3,0.2c2.9-8.6,5.6-17.7,7.7-26.1c7.7-30.9-5.1-78-12-100.3
	s-24-28.3-24-28.3c-7,2.5-13.7,5.9-19.7,10.3C680.8,332.6,717.7,435.5,717.7,435.5z"/>
<path class="st4" d="M710.8,433.8l-8.4,35c2.1,0.1,4.5,0.2,7.2,0.3c6.3,0.2,14.3,0.4,22.9,0.3c3.1-9.2,6.1-18.9,8.3-27.9
	c7.7-30.9-5.1-78-12-100.3s-21.9,2.1-21.9,2.1s6-14.6-5.1-6.9S710.8,433.8,710.8,433.8z"/>
<path class="st2" d="M708.2,312.9c0,0,17.2,6,24,28.3s19.7,69.5,12,100.3s-24,69.5-24,69.5s-16.3-12-22.3-9.4l16.3-67.7
	c0,0-36.9-102.9-25.7-110.6C694.6,318.9,701.2,315.4,708.2,312.9z"/>
<path class="st5" d="M542.9,382.2v22.2h2.2v-19"/>
<path class="st5" d="M545.1,377.3V322h-2.2v52"/>
<circle class="st6" cx="544" cy="301" r="27"/>
<rect x="136" y="515.2" class="st0" width="322.4" height="222.2"/>
<path class="st3" d="M324.1,193.7L324.1,193.7c-27.4,0-49.6,24.6-49.6,55v38.6h11.9l6.9-14.3l-1.7,14.3h76.3l6.2-13l-1.6,13h8.6V257
	C381.1,222,355.6,193.7,324.1,193.7z"/>
<path class="st3" d="M267.3,445.9l-30.4,12.9l-105.8,86c-3.9,4.8-39.6,78.4-28.2,85.2s52.5,27.4,54.8,13.7s14.5-72.3,14.5-72.3
	l102-91.3L267.3,445.9z"/>
<path class="st3" d="M147.8,632.3l-12.9,38c0,0,13.7,14.5,6.8,26.6v41.9h-10.7l-3-22.1c0,0-12.1,21.8-18.3,22.1
	c-12.8,0.6-38.3,5.2-39.1-1.7S90,723.6,90,723.6l21.3-58.6l9.1-35.8L147.8,632.3z"/>
<path class="st3" d="M346.4,436c0,0,6.8,67-12.9,79.1c-19.8,12.2-107.3,51-107.3,51s37.3,35,29.7,43.4s-41.9,31.2-46.4,26.6
	s-55.5-59.4-49.5-76.9s90.6-74.6,90.6-74.6l9.9-35.8l3-28.9l32-20.5L346.4,436z"/>
<circle class="st7" cx="311.6" cy="248.4" r="31.7"/>
<path class="st7" d="M336.2,261.4c0,0-1.5,28.9,22.1,38s-58.6,68.5-58.6,68.5v-66.2c0,0,10.7-11.4,0-28.9L336.2,261.4z"/>
<path class="st7" d="M386.8,397.2l-6.1,29.7l-18.3,102c0,0,15.2,43.4-5.3,42.6s-10.7-47.2-10.7-47.2l10.7-84.5v-32.7L386.8,397.2z"
	/>
<path class="st7" d="M255.9,382.7l-6.8,26.6l-31.2,75.3c0,0-21.3,35.8-3.8,35s17.5-35,17.5-35l35.8-60.9v-34.2L255.9,382.7z"/>
<path class="st3" d="M250.6,604.9l25.1,23.6c0,0,17.5-3.8,24.4,16.7s11.4,33.5,11.4,33.5l-9.1,5.3l-11.4-16c0,0-6.8,28.9-13.7,31.2
	s-41.1,17.5-38,0l16.7-24.4c0,0,2.3-27.4-4.6-29.7s-25.1-25.1-25.1-25.1L250.6,604.9z"/>
<path class="st6" d="M302.8,305.7c-0.4,10.7,9.7,19.1,20,16.1c3.7-1,6.6-3.6,8-7.2c3.9-8.8,10.9-15.7,19.7-19.4
	c0,0,45.7,10.3,44.9,28.6s-28.9,46.4-28.9,46.4s3.8,101.2-16.7,99.7c-4.4-5.3-7.6-11.5-9.1-18.3c-10.3,16.3-81.1,5-73.1-22.1
	c0,0-6.1,10.7-6.8,6.1s6.1-116.4,6.1-116.4l36.3-24L302.8,305.7z"/>
<path class="st6" d="M389.7,316.4l0.5,0.3c3.3,1.9,5.4,5.4,5.4,9.2l0,56.5c0,3.1-4.3,23.1-1.9,25.1c2.9,2.5-7.1,60.3-12.7,62.2
	c-9.1,3-39.1-2.6-39.9-8s10.3-61.8,12.6-61.8c1.8,0,12.4-54.6,21-77.9c2-5.4,8-8.2,13.5-6.3C388.7,315.9,389.2,316.1,389.7,316.4z"
	/>
<path class="st6" d="M277.2,316.5l-10.7,3l-12.2,52.5c0,0-22.7,62.6-18.1,67.9s33,4.6,33,4.6L277.2,316.5z"/>
<path class="st3" d="M338.2,208.8c-4.8-6.5-12.4-10.4-20.5-10.5h-1c-18.8,0-34,17-34,37.9v0h6.3l1-7.7l1.5,7.7h37.3l3.1-6.5
	l-0.8,6.5h7.3c3.4,17-1.5,34-14.8,51h12.5l6.2-13.1l-1.6,13.1h23.8l4.7-30.1C369.4,234.7,356.3,215.6,338.2,208.8z"/>
<rect y="737.9" class="st5" width="888" height="2"/>
<path class="st6" d="M558.7,352.6c-6.5,5.1-15.5,4.6-15.5,4.6s1.5-8.9,8-14s15.5-4.6,15.5-4.6S565.2,347.4,558.7,352.6z"/>
<path class="st6" d="M537.3,342.7c5.8,5.9,6.2,14.9,6.2,14.9s-9-0.6-14.8-6.5s-6.2-14.9-6.2-14.9S531.5,336.8,537.3,342.7z"/>
<path class="st8" d="M258.1,35.3c-1.7,0-3.4,0.1-5.1,0.3C239.7,5.5,204.6-8.2,174.4,5.1c-13.6,6-24.5,16.9-30.5,30.5
	c-23-2.8-43.9,13.5-46.7,36.5c-0.1,0.6-0.1,1.2-0.2,1.8h202.9C298.2,52.1,280,35.3,258.1,35.3z"/>
<path class="st8" d="M451.8,101.7c-1,0-2,0.1-3,0.2c-8-18.1-29.1-26.3-47.3-18.4c-8.2,3.6-14.7,10.2-18.4,18.4
	c-13.8-1.7-26.4,8.1-28.1,21.9c0,0.4-0.1,0.7-0.1,1.1h122C475.9,111.8,465,101.7,451.8,101.7z"/>
</svg>
